<svg width="30" height="30" viewBox="0 0 30 30" fill="none" xmlns="http://www.w3.org/2000/svg">
<path d="M24.0721 9.2375C24.6359 8.65625 24.9846 7.8525 24.9846 6.965C24.9846 6.0775 24.6359 5.27375 24.0721 4.6925C23.787 4.39497 23.4448 4.15812 23.0659 3.99616C22.687 3.8342 22.2792 3.75047 21.8671 3.75C21.8671 3.75 20.3121 3.74625 18.7496 5.3575C17.1871 3.74625 15.6321 3.75 15.6321 3.75C15.2202 3.75052 14.8126 3.83415 14.4337 3.99588C14.0548 4.15762 13.7125 4.39412 13.4271 4.69125C12.8634 5.27375 12.5146 6.07625 12.5146 6.96375C12.5146 7.85125 12.8634 8.65625 13.4271 9.23625L17.2805 13.409C18.0723 14.2665 19.4271 14.2666 20.219 13.4092L24.0721 9.2375Z" fill="white"/>
<path fillRule="evenodd" clipRule="evenodd" d="M24.0325 16.275L19.9228 19.5619C19.5682 19.8455 19.1276 20 18.6736 20H13.75C13.4048 20 13.125 19.7202 13.125 19.375C13.125 19.0298 13.4048 18.75 13.75 18.75H18.2062C18.3193 18.7499 18.4302 18.7192 18.5272 18.6611C18.6242 18.603 18.7036 18.5197 18.7569 18.42C18.8103 18.3203 18.8356 18.2081 18.8302 18.0951C18.8248 17.9822 18.7889 17.8729 18.7262 17.7788L17.6163 16.1138C17.3885 15.771 17.0796 15.4899 16.7169 15.2956C16.3541 15.1013 15.949 14.9997 15.5375 15H8.75C8.41848 15 8.10054 15.1317 7.86612 15.3661C7.83339 15.3988 7.7844 15.4518 7.72092 15.5205C7.32965 15.9437 6.388 16.9623 5.3125 17.5H1.875V23.75H4.6875C6.25 23.75 7.65616 23.9062 8.125 24.375C8.59384 24.8438 9.33696 25 10 25H18.9237C19.4583 25.0001 19.9866 24.886 20.4734 24.6652C20.9602 24.4445 21.3942 24.1222 21.7463 23.72L28.008 17.5885C28.6325 16.977 28.3892 15.9214 27.56 15.645C26.9662 15.4471 26.3323 15.401 25.7161 15.5111C25.0999 15.6211 24.5211 15.8838 24.0325 16.275Z" fill="white"/>
</svg>
