<svg width="97" height="96" viewBox="0 0 97 96" fill="none" xmlns="http://www.w3.org/2000/svg">
<g filter="url(#filter0_d_1_607)">
<rect x="20" y="16" width="57" height="56" rx="10" fill="#1FA45B"/>
</g>
<path d="M57.0721 37.2375C57.6359 36.6562 57.9846 35.8525 57.9846 34.965C57.9846 34.0775 57.6359 33.2738 57.0721 32.6925C56.787 32.395 56.4448 32.1581 56.0659 31.9962C55.687 31.8342 55.2792 31.7505 54.8671 31.75C54.8671 31.75 53.3121 31.7462 51.7496 33.3575C50.1871 31.7462 48.6321 31.75 48.6321 31.75C48.2202 31.7505 47.8126 31.8342 47.4337 31.9959C47.0548 32.1576 46.7125 32.3941 46.4271 32.6913C45.8634 33.2738 45.5146 34.0763 45.5146 34.9638C45.5146 35.8513 45.8634 36.6562 46.4271 37.2362L50.2805 41.409C51.0723 42.2665 52.4271 42.2666 53.219 41.4092L57.0721 37.2375Z" fill="white"/>
<path fill-rule="evenodd" clip-rule="evenodd" d="M57.0325 44.275L52.9228 47.5619C52.5682 47.8455 52.1276 48 51.6736 48H46.75C46.4048 48 46.125 47.7202 46.125 47.375C46.125 47.0298 46.4048 46.75 46.75 46.75H51.2062C51.3193 46.7499 51.4302 46.7192 51.5272 46.6611C51.6242 46.603 51.7036 46.5197 51.7569 46.42C51.8103 46.3203 51.8356 46.2081 51.8302 46.0951C51.8248 45.9822 51.7889 45.8729 51.7262 45.7788L50.6163 44.1138C50.3885 43.771 50.0796 43.4899 49.7169 43.2956C49.3541 43.1013 48.949 42.9997 48.5375 43H41.75C41.4185 43 41.1005 43.1317 40.8661 43.3661C40.8334 43.3988 40.7844 43.4518 40.7209 43.5205C40.3297 43.9437 39.388 44.9623 38.3125 45.5H34.875V51.75H37.6875C39.25 51.75 40.6562 51.9062 41.125 52.375C41.5938 52.8438 42.337 53 43 53H51.9237C52.4583 53.0001 52.9866 52.886 53.4734 52.6652C53.9602 52.4445 54.3942 52.1222 54.7463 51.72L61.008 45.5885C61.6325 44.977 61.3892 43.9214 60.56 43.645C59.9662 43.4471 59.3323 43.401 58.7161 43.5111C58.0999 43.6211 57.5211 43.8838 57.0325 44.275Z" fill="white"/>
<defs>
<filter id="filter0_d_1_607" x="0" y="0" width="97" height="96" filterUnits="userSpaceOnUse" color-interpolation-filters="sRGB">
<feFlood flood-opacity="0" result="BackgroundImageFix"/>
<feColorMatrix in="SourceAlpha" type="matrix" values="0 0 0 0 0 0 0 0 0 0 0 0 0 0 0 0 0 0 127 0" result="hardAlpha"/>
<feOffset dy="4"/>
<feGaussianBlur stdDeviation="10"/>
<feComposite in2="hardAlpha" operator="out"/>
<feColorMatrix type="matrix" values="0 0 0 0 0.121569 0 0 0 0 0.643137 0 0 0 0 0.356863 0 0 0 0.22 0"/>
<feBlend mode="normal" in2="BackgroundImageFix" result="effect1_dropShadow_1_607"/>
<feBlend mode="normal" in="SourceGraphic" in2="effect1_dropShadow_1_607" result="shape"/>
</filter>
</defs>
</svg>
